
<svg width="155px" height="157px" viewBox="0 0 155 157" version="1.1" xmlns="http://www.w3.org/2000/svg" xmlns:xlink="http://www.w3.org/1999/xlink">
    <g id="Page-1" stroke="none" stroke-width="1" fill="none" fill-rule="evenodd">
        <g id="noun_Mountains_1149491">
            <g id="Group">
                <path d="M125.956875,44.1303333 C134.0285,44.1303333 140.59275,37.6366667 140.59275,29.6518333 C140.59275,21.667 134.0285,15.1733333 125.956875,15.1733333 C117.889125,15.1733333 111.324875,21.667 111.324875,29.6518333 C111.324875,37.6366667 117.889125,44.1303333 125.956875,44.1303333 Z M125.956875,20.9195 C130.82775,20.9195 134.784125,24.8371667 134.784125,29.6518333 C134.784125,34.4665 130.82775,38.3841667 125.956875,38.3841667 C121.089875,38.3841667 117.1335,34.4665 117.1335,29.6518333 C117.1335,24.8371667 121.089875,20.9195 125.956875,20.9195 Z" id="Shape" fill="#FFFF99" fill-rule="nonzero"></path>
                <path d="M125.956875,12.4095 C127.561125,12.4095 128.863125,11.1215 128.863125,9.5345 L128.863125,3.78833333 C128.863125,2.20133333 127.561125,0.917166667 125.956875,0.917166667 C124.34875,0.917166667 123.0545,2.20133333 123.0545,3.78833333 L123.0545,9.5345 C123.0545,11.1215 124.34875,12.4095 125.956875,12.4095 Z" id="Path" fill="#FFFF99"></path>
                <path d="M123.0545,49.7653333 L123.0545,55.5115 C123.0545,57.0985 124.34875,58.3865 125.956875,58.3865 C127.561125,58.3865 128.863125,57.0985 128.863125,55.5115 L128.863125,49.7653333 C128.863125,48.1783333 127.561125,46.8903333 125.956875,46.8903333 C124.34875,46.8903333 123.0545,48.1783333 123.0545,49.7653333 Z" id="Path" fill="#FFFF99"></path>
                <path d="M99.81225,32.523 L105.620875,32.523 C107.229,32.523 108.527125,31.235 108.527125,29.6518333 C108.527125,28.061 107.229,26.7768333 105.620875,26.7768333 L99.81225,26.7768333 C98.211875,26.7768333 96.906,28.061 96.906,29.6518333 C96.906,31.235 98.211875,32.523 99.81225,32.523 Z" id="Path" fill="#FFFF99"></path>
                <path d="M152.097625,26.7768333 L146.292875,26.7768333 C144.68475,26.7768333 143.38275,28.061 143.38275,29.6518333 C143.38275,31.235 144.68475,32.523 146.292875,32.523 L152.097625,32.523 C153.70575,32.523 155,31.235 155,29.6518333 C155,28.061 153.70575,26.7768333 152.097625,26.7768333 Z" id="Path" fill="#FFFF99"></path>
                <path d="M109.379625,41.9836667 L104.954375,46.369 C103.815125,47.4883333 103.815125,49.3091667 104.954375,50.4285 C105.520125,50.9881667 106.264125,51.2718333 107.00425,51.2718333 C107.74825,51.2718333 108.49225,50.992 109.054125,50.4285 L113.48325,46.0546667 C114.618625,44.9315 114.618625,43.1106667 113.48325,41.9836667 C112.35175,40.8643333 110.515,40.8643333 109.379625,41.9836667 Z" id="Path" fill="#FFFF99"></path>
                <path d="M140.480375,18.1556667 C141.2205,18.1556667 141.968375,17.8758333 142.534125,17.3123333 L146.959375,12.9346667 C148.09475,11.8115 148.09475,9.99066667 146.959375,8.8675 C145.824,7.74816667 143.98725,7.74816667 142.851875,8.8675 L138.42275,13.249 C137.287375,14.3721667 137.287375,16.1891667 138.42275,17.3123333 C138.992375,17.8758333 139.74025,18.1556667 140.480375,18.1556667 Z" id="Path" fill="#FFFF99"></path>
                <path d="M109.379625,17.3123333 C109.945375,17.872 110.689375,18.1556667 111.433375,18.1556667 C112.177375,18.1556667 112.921375,17.8758333 113.48325,17.3123333 C114.618625,16.1891667 114.618625,14.3721667 113.48325,13.249 L109.054125,8.8675 C107.9265,7.74816667 106.085875,7.74816667 104.9505,8.8675 C103.81125,9.99066667 103.81125,11.8115 104.9505,12.9346667 L109.379625,17.3123333 Z" id="Path" fill="#FFFF99"></path>
                <path d="M138.426625,41.9836667 C137.29125,43.1106667 137.29125,44.9315 138.426625,46.0546667 L142.85575,50.4285 C143.4215,50.9881667 144.1655,51.2718333 144.905625,51.2718333 C145.649625,51.2718333 146.393625,50.992 146.959375,50.4285 C148.09475,49.3091667 148.09475,47.4883333 146.959375,46.369 L142.534125,41.9836667 C141.39875,40.8643333 139.558125,40.8643333 138.426625,41.9836667 Z" id="Path" fill="#FFFF99"></path>
                <path d="M114.979,76.5258333 C113.766125,74.2066667 111.844125,72.8726667 109.7245,72.8726667 C107.604875,72.8726667 105.68675,74.2066667 104.47775,76.499 L91.136125,101.335167 L60.686375,30.9283333 C59.151875,27.3901667 56.710625,27.0106667 55.734125,27.0106667 C54.75375,27.0106667 52.30475,27.394 50.774125,30.9283333 L0.6665,146.794667 C-0.329375,149.083167 -0.2015,151.433 1.003625,153.246167 C2.20875,155.047833 4.343875,156.082833 6.862625,156.082833 L104.597875,156.082833 C104.83425,156.082833 105.0435,156.025333 105.276,156.01 C105.396125,156.025333 105.504625,156.082833 105.62475,156.082833 L146.29675,156.082833 C148.85425,156.082833 150.966125,155.036333 152.089875,153.207833 C153.20975,151.371667 153.174875,149.033333 151.996875,146.783167 L114.979,76.5258333 Z M94.333,107.6295 L109.616,79.1746667 C109.65475,79.1018333 109.689625,79.0443333 109.720625,78.9868333 C109.7555,79.0443333 109.790375,79.1018333 109.829125,79.1746667 L125.89875,109.695667 C125.29425,110.186333 124.755625,110.692333 124.282875,111.156167 C122.988625,112.4365 122.353125,113.003833 120.896125,113.003833 C119.439125,113.003833 118.803625,112.4365 117.5055,111.156167 C115.99425,109.665 113.928875,107.618 109.999625,107.618 C106.078125,107.618 104.005,109.665 102.49375,111.152333 C101.19175,112.4365 100.552375,113.003833 99.0915,113.003833 C97.630625,113.003833 96.99125,112.4365 95.68925,111.152333 L95.13125,110.611833 L94.0075,108.009 C94.116,107.878667 94.2555,107.782833 94.333,107.6295 Z M55.734125,34.0831667 L75.419125,79.6001667 C73.869125,80.3553333 72.48575,81.3711667 71.629375,82.2183333 C70.20725,83.629 69.52525,84.2461667 67.89,84.2461667 C66.258625,84.2461667 65.55725,83.629 64.139,82.2183333 C62.55025,80.6505 60.38025,78.5 56.268875,78.5 C52.161375,78.5 49.983625,80.6505 48.402625,82.2183333 C46.97275,83.629 46.271375,84.2461667 44.636125,84.2461667 C42.997,84.2461667 42.295625,83.629 40.86575,82.2183333 C39.769125,81.1335 38.374125,79.7841667 36.281625,79.0558333 L55.734125,34.0831667 Z M5.85125,150.076 C5.7815,149.976333 5.766,149.6045 6.00625,149.056333 L33.987625,84.3535 C34.99125,84.5835 35.669375,85.193 36.766,86.274 C38.350875,87.8456667 40.52475,89.9961667 44.636125,89.9961667 C48.743625,89.9961667 50.9175,87.8456667 52.50625,86.274 C53.93225,84.8671667 54.633625,84.2461667 56.268875,84.2461667 C57.90025,84.2461667 58.59775,84.8671667 60.02375,86.274 C61.608625,87.8456667 63.77475,89.9961667 67.88225,89.9961667 C71.9975,89.9961667 74.14425,87.8418333 75.74075,86.274 C76.674625,85.3501667 76.752125,84.7636667 77.519375,84.4761667 L105.4465,149.056333 C105.68675,149.6045 105.67125,149.9725 105.6015,150.076 C105.535625,150.1795 105.1985,150.336667 104.590125,150.336667 L6.862625,150.336667 C6.250375,150.336667 5.917125,150.1795 5.85125,150.076 Z M146.292875,150.336667 L111.42175,150.336667 C111.503125,149.1905 111.3055,147.9945 110.790125,146.794667 L98.64975,118.723167 C98.808625,118.727 98.94425,118.75 99.09925,118.75 C103.0285,118.75 105.09775,116.710667 106.609,115.223333 C107.907125,113.9315 108.542625,113.364167 110.0035,113.364167 C111.4605,113.364167 112.099875,113.9315 113.398,115.2195 C114.90925,116.706833 116.974625,118.75 120.9,118.75 C124.825375,118.75 126.89075,116.706833 128.39425,115.2195 C128.506625,115.112167 128.58025,115.054667 128.681,114.958833 L146.83925,149.4435 C147.091125,149.918833 147.114375,150.2255 147.16475,150.175667 C147.106625,150.217833 146.835375,150.336667 146.292875,150.336667 Z" id="Shape" fill="#000000" fill-rule="nonzero"></path>
            </g>
        </g>
    </g>
</svg>
