
<svg width="80px" height="96px" viewBox="0 0 143 181" version="1.1" xmlns="http://www.w3.org/2000/svg" xmlns:xlink="http://www.w3.org/1999/xlink">
    <g id="Page-1" stroke="none" stroke-width="1" fill="none" fill-rule="evenodd">
        <g id="noun_can_171404" transform="translate(71.540668, 90.810286) rotate(-21.000000) translate(-71.540668, -90.810286) translate(20.040668, 5.810286)">
            <g id="Group">
                <g fill-rule="nonzero" id="Shape">
                    <path d="M102.063558,69.1881111 C102.065577,69.1333333 102.039327,69.088 102.037308,69.0332222 L102.037308,20.4188889 C102.037308,20.3735556 102.025192,20.3301111 102.021154,20.2847778 C102.081731,19.8106667 101.980769,19.3252222 101.706154,18.9077778 C101.467885,18.5507778 96.0159615,10.3322222 92.5691346,5.78377778 C91.7432692,3.26588889 87.0000962,2.21 79.3068269,1.326 C71.8639423,0.472222222 61.9899038,0 51.5,0 C41.0121154,0 31.1380769,0.472222222 23.6951923,1.326 C18.1382692,1.96444444 14.1240385,2.69544444 12.0058654,3.99688889 C11.5858654,4.14044444 11.2082692,4.38788889 10.9376923,4.73544444 C7.55346154,9.08366667 1.53413462,18.1597778 1.27769231,18.5451111 C0.972788462,19.0078889 0.873846154,19.5575556 0.982884615,20.0788889 C0.962692308,20.1903333 0.944519231,20.3017778 0.944519231,20.4188889 L0.944519231,119.810333 C0.934423077,119.936889 0.928365385,120.061556 0.944519231,120.19 L0.944519231,150.978889 C0.944519231,151.086556 0.954615385,151.192333 0.972788462,151.296222 C1.01317308,152.380444 1.56240385,153.345667 3.23028846,154.214556 C5.23538462,157.182 8.35913462,161.736111 10.57625,164.641222 C11.2829808,166.025778 13.4455769,167.550111 24.2484615,168.742 C31.6166346,169.552333 41.2826923,170 51.4656731,170 C67.9123077,170 86.5094231,168.762778 90.9860577,165.995556 L90.9759615,165.980444 L92.0461538,165.472333 C94.4106731,162.435 98.0594231,157.091333 100.131154,154.014333 C101.580962,153.164333 102.03125,152.219889 102.03125,151.164 C102.03125,151.152667 102.03125,151.143222 102.03125,151.131889 C102.035288,151.080889 102.037308,151.028 102.037308,150.977 L102.037308,69.5696667 C102.043365,69.4393333 102.0575,69.3203333 102.063558,69.1881111 Z M51.5181731,4.47855556 C67.5851923,4.47855556 79.4320192,5.576 85.0798077,6.71311111 C79.4340385,7.85022222 67.5750962,8.94766667 51.5,8.94766667 C35.4713462,8.94766667 23.6366346,7.85588889 17.9726923,6.72255556 C23.4973077,5.58922222 34.9423077,4.47855556 51.5181731,4.47855556 Z M12.8297115,9.65977778 C15.09125,10.6948889 18.7925,11.3295556 23.6972115,11.8924444 C31.1400962,12.7481111 41.0121154,13.2184444 51.5020192,13.2184444 C61.9919231,13.2184444 71.8639423,12.7462222 79.3068269,11.8924444 C84.0560577,11.3465556 87.6846154,10.7364444 89.9623077,9.75988889 C91.9997115,12.5554444 94.4510577,16.1405556 96.0684615,18.5375556 C89.0072115,19.7747778 71.4944231,22.5193333 55.1225,22.5193333 C53.9190385,22.5193333 52.7317308,22.5042222 51.5908654,22.4758889 C34.25375,22.032 14.6530769,19.2742222 6.96586538,18.0993333 C8.53278846,15.7778889 10.8549038,12.3854444 12.8297115,9.65977778 Z M51.4656731,26.7428889 C52.6489423,26.775 53.8806731,26.7882222 55.1225,26.7882222 C72.3061538,26.7882222 90.6488462,23.8434444 97.4738462,22.6345556 L97.4738462,69.2768889 C97.0578846,79.7696667 94.6368269,87.1703333 89.8532692,92.5461111 C86.0147115,96.8622222 80.2740385,99.8561111 72.3021154,101.699667 C64.5240385,103.499778 56.3663462,104.098556 48.4792308,104.674667 C40.4972115,105.258333 32.2425962,105.862778 24.27875,107.704444 C17.0882692,109.368556 10.8104808,112.022444 5.51605769,115.583 L5.51605769,22.202 C12.7570192,23.324 33.30875,26.2782222 51.4656731,26.7428889 Z M88.8375962,162.327333 L88.4660577,162.433111 C86.2529808,163.802556 73.3076923,165.729222 51.4636538,165.729222 C30.4434615,165.729222 16.6339423,163.851667 14.5016346,162.463333 L14.4329808,162.344333 C13.1709615,160.702889 11.5394231,158.406 9.99875,156.182778 C11.9473077,156.541667 14.2875962,156.881667 17.1064423,157.206556 C26.3100962,158.264333 38.5244231,158.846111 51.5,158.846111 C64.4775962,158.846111 76.6939423,158.262444 85.8955769,157.206556 C88.8416346,156.866556 91.2707692,156.511444 93.2698077,156.133667 C91.7594231,158.315333 90.1379808,160.616 88.8375962,162.327333 Z M97.4738462,150.208222 C97.3022115,150.393333 97.1325962,150.578444 96.965,150.765444 C93.1526923,152.291667 78.0730769,154.573444 51.5020192,154.573444 C23.4993269,154.573444 8.24807692,152.038556 5.51403846,150.523667 L5.51403846,121.013556 C17.7404808,111.176222 34.2900962,109.897444 50.3167308,108.679111 L53.1052885,108.471333 C66.9592308,107.44 82.6627885,106.270778 92.63375,96.0764444 C94.5540385,94.112 96.1431731,91.8207778 97.4738462,89.2518889 L97.4738462,150.208222 Z" fill="#000000"></path>
                    <path d="M79.3411538,72.9073333 C85.5745192,72.9073333 90.6448077,68.1643333 90.6448077,62.3333333 C90.6448077,56.5023333 85.5745192,51.7593333 79.3411538,51.7593333 C73.1077885,51.7593333 68.0375,56.5042222 68.0375,62.3333333 C68.0375,68.1624444 73.1077885,72.9073333 79.3411538,72.9073333 Z M79.3411538,55.5371111 C83.3452885,55.5371111 86.6063462,58.5857778 86.6063462,62.3333333 C86.6063462,66.0808889 83.3473077,69.1295556 79.3411538,69.1295556 C75.335,69.1295556 72.0759615,66.0808889 72.0759615,62.3333333 C72.0759615,58.5857778 75.3370192,55.5371111 79.3411538,55.5371111 Z" fill="#FDA185"></path>
                    <path d="M79.3411538,81.3638889 C74.8867308,81.3638889 71.2642308,84.7525556 71.2642308,88.9194444 C71.2642308,93.0863333 74.8867308,96.475 79.3411538,96.475 C83.7955769,96.475 87.4180769,93.0863333 87.4180769,88.9194444 C87.4180769,84.7544444 83.7955769,81.3638889 79.3411538,81.3638889 Z M79.3411538,92.6972222 C77.1139423,92.6972222 75.3026923,91.0028889 75.3026923,88.9194444 C75.3026923,86.836 77.1139423,85.1416667 79.3411538,85.1416667 C81.5683654,85.1416667 83.3796154,86.836 83.3796154,88.9194444 C83.3796154,91.0028889 81.5683654,92.6972222 79.3411538,92.6972222 Z" fill="#FDA185"></path>
                    <path d="M57.5475962,90.1736667 C62.0020192,90.1736667 65.6245192,86.785 65.6245192,82.6181111 C65.6245192,78.4512222 62.0020192,75.0625556 57.5475962,75.0625556 C53.0931731,75.0625556 49.4706731,78.4512222 49.4706731,82.6181111 C49.4706731,86.785 53.0931731,90.1736667 57.5475962,90.1736667 Z M57.5475962,78.8403333 C59.7748077,78.8403333 61.5860577,80.5346667 61.5860577,82.6181111 C61.5860577,84.7015556 59.7748077,86.3958889 57.5475962,86.3958889 C55.3203846,86.3958889 53.5111538,84.7015556 53.5111538,82.6181111 C53.5111538,80.5346667 55.3224038,78.8403333 57.5475962,78.8403333 Z" fill="#FDA185"></path>
                </g>
                <text id="Seltzer" transform="translate(57.526378, 123.062005) rotate(-10.000000) translate(-57.526378, -123.062005) " font-family="AndaleMono, Andale Mono" font-size="16" font-weight="normal" letter-spacing="0.5155554" fill="#FDA185">
                    <tspan x="22.1164649" y="129.062005">Seltzer</tspan>
                </text>
            </g>
        </g>
    </g>
</svg>
