
<svg width="144px" height="149px" viewBox="0 0 144 149" version="1.1" xmlns="http://www.w3.org/2000/svg" xmlns:xlink="http://www.w3.org/1999/xlink">
    <g id="Page-1" stroke="none" stroke-width="1" fill="none" fill-rule="evenodd">
        <g id="noun_sneakers_1075660">
            <g id="Group" fill="#000000">
                <path d="M140.7,124.477083 L120.6,97.1604167 L119.4,95.6083333 C118.8,94.6770833 117.3,91.2625 115.2,86.60625 L115.8,86.60625 C117.3,86.2958333 118.5,84.4333333 117.9,82.88125 C117.6,81.3291667 115.8,80.0875 114.3,80.7083333 L112.5,81.01875 C111.3,78.5354167 110.4,76.0520833 109.2,73.2583333 L110.1,72.9479167 C111.6,72.6375 112.8,70.775 112.2,69.2229167 C111.9,67.6708333 110.1,66.4291667 108.6,67.05 L106.8,67.6708333 C105.9,65.1875 105,62.39375 104.1,59.9104167 L105.3,59.6 C106.8,59.2895833 108,57.4270833 107.4,55.875 C107.1,54.3229167 105.3,53.08125 103.8,53.7020833 L102.3,54.0125 C102.3,53.7020833 102,53.3916667 102,53.08125 C101.4,51.21875 101.1,49.6666667 100.8,47.8041667 C100.8,47.1833333 100.8,46.2520833 100.8,45.3208333 C101.7,40.3541667 102.3,33.8354167 99,30.73125 C95.7,27.3166667 88.8,28.86875 86.1,34.45625 L84.6,37.8708333 C84.6,38.18125 84.3,38.18125 84,38.18125 C64.8,34.1458333 60.6,30.1104167 57.6,27.9375 C52.8,24.5229167 54,20.1770833 54.6,17.0729167 C55.5,12.7270833 56.4,9.00208333 51.3,2.48333333 C49.5,1.03250741e-14 45.9,-0.310416667 43.8,1.55208333 C37.2,7.76041667 16.5,25.14375 12,30.1104167 C0.3,34.1458333 -2.4,44.0791667 2.4,50.2875 C32.4,89.4 81.9,130.375 103.2,141.860417 C113.7,147.1375 131.1,152.104167 139.5,143.722917 C142.8,140.929167 147,133.16875 140.7,124.477083 Z M47.4,7.13958333 C50.1,10.8645833 49.8,12.4166667 49.2,15.83125 C48.6,18.9354167 46.2,27.00625 54.3,32.9041667 C60.6,39.1125 75,42.5270833 83.1,44.3895833 C86.1,45.0104167 89.1,43.4583333 90.3,40.6645833 L91.8,37.25 C92.7,35.3875 94.5,34.7666667 95.1,35.3875 C95.7,36.0083333 96.3,39.1125 95.1,44.3895833 C94.8,45.9416667 94.8,47.49375 95.1,49.0458333 C95.4,50.9083333 96,52.7708333 96.3,54.6333333 C96.3,54.94375 96.3,54.94375 96.6,55.2541667 L90.6,56.80625 C89.1,57.1166667 87.9,58.9791667 88.5,60.53125 C88.8,62.0833333 90.6,63.325 92.1,62.7041667 L98.4,61.1520833 C99.3,63.6354167 100.2,66.4291667 101.1,68.9125 L95.4,70.1541667 C93.9,70.4645833 92.7,72.3270833 93.3,73.8791667 C93.6,75.43125 95.4,76.6729167 96.9,76.0520833 L103.2,74.5 C104.4,77.29375 105.3,79.7770833 106.5,82.2604167 L101.1,83.8125 C99.6,84.1229167 98.4,85.9854167 99,87.5375 C99.3,89.0895833 101.1,90.33125 102.6,89.7104167 L109.5,87.8479167 C112.2,93.7458333 114.3,98.0916667 114.6,98.4020833 C114.6,98.7125 114.9,98.7125 114.9,99.0229167 L136.5,128.202083 C139.8,132.547917 138.3,136.272917 136.8,138.135417 C126.3,135.652083 109.2,124.477083 105.9,121.683333 C54.3,78.8458333 32.4,50.5979167 17.7,33.2145833 C22.2,28.5583333 35.4,17.3833333 47.4,7.13958333 Z M105.9,136.272917 C85.5,125.408333 38.1,86.60625 6.9,46.5625 C3.9,42.8375 8.4,38.4916667 12.6,36.6291667 C25.5,51.8395833 48,81.6395833 101.7,126.65 C105.3,129.754167 118.2,138.135417 128.1,142.170833 C120.6,142.48125 110.1,138.445833 105.9,136.272917 Z" id="Shape" fill-rule="nonzero"></path>
                <path d="M29.1,34.1458333 L36,42.2166667 C37.2,43.4583333 39,43.76875 40.2,42.5270833 C41.4,41.2854167 41.7,39.4229167 40.5,38.18125 L33.6,30.1104167 C32.4,28.86875 30.6,28.5583333 29.4,29.8 C28.2,30.73125 28.2,32.9041667 29.1,34.1458333 Z" id="Path"></path>
            </g>
            <path d="M53.2639193,67.3366667 L81,53" id="Line" stroke="#D8D6FC" stroke-width="6" fill="#D8D6FC" stroke-linecap="square"></path>
            <path d="M67,82 L88,70" id="Line" stroke="#D8D6FC" stroke-width="6" fill="#D8D6FC" stroke-linecap="square"></path>
            <path d="M61,74.5 L83.5936,61.5" id="Line" stroke="#D8D6FC" stroke-width="6" fill="#D8D6FC" stroke-linecap="square"></path>
        </g>
    </g>
</svg>
